<?xml version="1.0" encoding="UTF-8"?> <svg xmlns="http://www.w3.org/2000/svg" width="16" height="16" viewBox="0 0 16 16" fill="none"><path d="M12.839 7.98292V14.3391C12.8443 14.479 12.8414 14.6192 12.8302 14.7588C12.8163 14.8811 12.7649 14.9962 12.6831 15.0882C12.6013 15.1802 12.4931 15.2447 12.3732 15.2728C12.0883 15.3352 11.8154 15.2487 11.6773 15.0273C11.5996 14.8904 11.534 14.7471 11.4812 14.5988C10.8587 13.0383 10.2264 11.4821 9.61814 9.91607C9.30472 9.10621 8.97924 8.95607 8.19896 8.96813C6.81485 8.98895 5.43074 8.96265 4.04554 8.95498C3.94062 8.95756 3.83563 8.95464 3.73102 8.94621C3.62603 8.93608 3.52544 8.89897 3.43903 8.83848C3.35262 8.77798 3.28333 8.69617 3.23789 8.60098C3.19244 8.50579 3.17239 8.40047 3.17969 8.29524C3.18698 8.19001 3.22137 8.08846 3.27951 8.00045C3.39384 7.8461 3.52922 7.70851 3.6817 7.59169C5.02234 6.46365 6.36444 5.33781 7.708 4.21415C8.94344 3.17817 10.1785 2.14292 11.4132 1.1084C11.5556 0.978767 11.7084 0.861105 11.8702 0.756618C12.302 0.504564 12.7831 0.756618 12.8313 1.25963C12.8444 1.39881 12.8368 1.54018 12.8368 1.67936L12.839 7.98292Z" fill="#0052FE"></path></svg> 